<svg width="25" height="23" viewBox="0 0 25 23" fill="none" xmlns="http://www.w3.org/2000/svg">
<path d="M12.4998 8.625C13.3286 8.625 14.1235 8.9279 14.7095 9.46707C15.2956 10.0062 15.6248 10.7375 15.6248 11.5C15.6248 12.2625 15.2956 12.9938 14.7095 13.5329C14.1235 14.0721 13.3286 14.375 12.4998 14.375C11.671 14.375 10.8762 14.0721 10.2901 13.5329C9.70408 12.9938 9.37484 12.2625 9.37484 11.5C9.37484 10.7375 9.70408 10.0062 10.2901 9.46707C10.8762 8.9279 11.671 8.625 12.4998 8.625ZM12.4998 4.3125C17.7082 4.3125 22.1561 7.29292 23.9582 11.5C22.1561 15.7071 17.7082 18.6875 12.4998 18.6875C7.2915 18.6875 2.84359 15.7071 1.0415 11.5C2.84359 7.29292 7.2915 4.3125 12.4998 4.3125ZM3.31234 11.5C4.15427 13.0815 5.46161 14.414 7.08575 15.346C8.70989 16.278 10.5857 16.7721 12.4998 16.7721C14.414 16.7721 16.2898 16.278 17.9139 15.346C19.5381 14.414 20.8454 13.0815 21.6873 11.5C20.8454 9.91846 19.5381 8.58595 17.9139 7.65396C16.2898 6.72198 14.414 6.2279 12.4998 6.2279C10.5857 6.2279 8.70989 6.72198 7.08575 7.65396C5.46161 8.58595 4.15427 9.91846 3.31234 11.5Z" fill="black"/>
</svg>
