<svg width="29" height="29" viewBox="0 0 29 29" fill="none" xmlns="http://www.w3.org/2000/svg">
<path fill-rule="evenodd" clip-rule="evenodd" d="M8.45841 8.45835C8.45841 5.12094 11.1627 2.41669 14.5001 2.41669C17.8375 2.41669 20.5417 5.12094 20.5417 8.45835V12.0834H21.0251C22.0884 12.0834 22.9584 12.9534 22.9584 14.0167V22.475C22.9584 24.07 21.6534 25.375 20.0584 25.375H8.94175C7.34675 25.375 6.04175 24.07 6.04175 22.475V14.0167C6.04175 12.9534 6.91175 12.0834 7.97508 12.0834H8.45841V8.45835ZM18.1251 8.45835V12.0834H10.8751V8.45835C10.8751 6.45494 12.4967 4.83335 14.5001 4.83335C16.5035 4.83335 18.1251 6.45494 18.1251 8.45835ZM14.5001 14.8021C14.0196 14.8016 13.5532 14.9648 13.1778 15.2647C12.8025 15.5647 12.5404 15.9836 12.4349 16.4523C12.3294 16.9211 12.3867 17.4118 12.5973 17.8437C12.808 18.2756 13.1595 18.6228 13.5938 18.8283V21.75C13.5938 21.9904 13.6893 22.2209 13.8593 22.3908C14.0292 22.5608 14.2597 22.6563 14.5001 22.6563C14.7404 22.6563 14.9709 22.5608 15.1409 22.3908C15.3109 22.2209 15.4063 21.9904 15.4063 21.75V18.8283C15.8407 18.6228 16.1922 18.2756 16.4028 17.8437C16.6135 17.4118 16.6708 16.9211 16.5652 16.4523C16.4597 15.9836 16.1977 15.5647 15.8223 15.2647C15.4469 14.9648 14.9806 14.8016 14.5001 14.8021Z" fill="black"/>
</svg>
