<svg width="311" height="399" viewBox="0 0 311 399" fill="none" xmlns="http://www.w3.org/2000/svg">
<path d="M155.56 396.552C171.627 396.552 303.637 271.559 307.606 191.9L293.312 171.435L308.624 150.97V30.0778L175.968 2.60233L155.56 9.77424L135.152 2.60233L2.4964 39.0276V151.596L17.8078 171.445L3.52387 191.911C8.3389 285.842 139.614 396.552 155.56 396.552Z" fill="#329BA2" stroke="#F6FEF3" stroke-width="4" stroke-linecap="round" stroke-linejoin="round"/>
<path d="M135.152 2.60233V84.4631L43.3134 150.97H2.4964M175.968 2.60233V84.4631L267.807 150.97H308.624M307.606 191.9L259.637 192.506L155.56 113.11M155.56 113.11L51.4828 191.9H3.52387M155.56 113.11V396.552" stroke="#F6FEF3" stroke-width="2" stroke-linecap="round" stroke-linejoin="round"/>
</svg>
