<svg width="50" height="64" viewBox="0 0 50 64" fill="none" xmlns="http://www.w3.org/2000/svg">
<path d="M25.0091 61.933C27.4165 61.933 47.1966 43.2157 47.7912 31.2871L45.6495 28.2225L47.9437 25.1579V7.0548L28.067 2.94044L25.0091 4.01441L21.9511 2.94044L2.07446 8.39499V25.2517L4.36868 28.224L2.22842 31.2886C2.94989 45.3546 22.6198 61.933 25.0091 61.933Z" fill="#329BA2" stroke="#F6FEF3" stroke-width="4" stroke-linecap="round" stroke-linejoin="round"/>
<path d="M21.9511 2.94044V15.1988L8.19036 25.1579H2.07446M28.067 2.94044V15.1988L41.8278 25.1579H47.9437M47.7912 31.2871L40.6037 31.3779L25.0091 19.4886M25.0091 19.4886L9.41444 31.2871H2.22842M25.0091 19.4886V61.933" stroke="#F6FEF3" stroke-width="2" stroke-linecap="round" stroke-linejoin="round"/>
</svg>
